<?xml version="1.0" standalone="no"?>
<!DOCTYPE svg PUBLIC "-//W3C//DTD SVG 20010904//EN"
 "http://www.w3.org/TR/2001/REC-SVG-20010904/DTD/svg10.dtd">
<svg version="1.0" xmlns="http://www.w3.org/2000/svg"
 width="864.000000pt" height="864.000000pt" viewBox="0 0 864.000000 864.000000"
 preserveAspectRatio="xMidYMid meet">

<g transform="translate(0.000000,864.000000) scale(0.100000,-0.100000)"
fill="#000000" stroke="none">
<path d="M2851 5823 c-6 -21 -28 -108 -49 -193 l-40 -155 416 -3 c228 -1 417
0 420 2 2 3 -26 78 -63 168 -37 90 -73 175 -79 191 l-10 27 -293 0 -292 0 -10
-37z"/>
<path d="M4478 5668 l-176 -193 1130 -3 c622 -1 1132 -1 1134 0 1 2 24 90 51
196 l50 192 -1007 0 -1006 0 -176 -192z"/>
<path d="M1628 3805 l-3 -345 68 0 67 0 0 218 c1 253 -10 248 114 43 44 -72
84 -131 90 -131 6 0 48 63 93 138 124 207 112 212 113 -45 l0 -223 65 0 65 0
0 345 0 345 -69 0 -70 0 -97 -160 c-53 -88 -100 -157 -104 -155 -5 3 -50 75
-101 160 l-94 155 -67 0 -67 0 -3 -345z"/>
<path d="M4960 4085 l0 -65 95 0 95 0 0 -280 0 -280 70 0 70 0 0 280 0 280 90
0 90 0 0 65 0 65 -255 0 -255 0 0 -65z"/>
<path d="M6560 3805 l0 -345 65 0 65 0 0 154 c0 85 4 166 10 180 17 46 95 70
143 44 44 -23 46 -36 47 -210 l0 -168 66 0 66 0 -4 193 c-3 192 -3 194 -30
235 -16 23 -41 48 -58 57 -68 35 -177 27 -216 -16 -19 -21 -19 -20 -24 97 l-5
119 -62 3 -63 3 0 -346z"/>
<path d="M3583 4078 l-63 -19 0 -49 0 -50 -40 0 -40 0 0 -60 0 -60 39 0 39 0
4 -142 c3 -112 8 -150 22 -176 25 -49 75 -66 179 -63 l37 1 0 60 0 60 -45 0
c-59 0 -65 13 -65 149 l0 111 55 0 55 0 0 60 0 60 -55 0 -54 0 -3 69 -3 69
-62 -20z"/>
<path d="M2557 3956 c-57 -21 -100 -58 -132 -117 -25 -46 -29 -65 -29 -129 0
-64 4 -83 29 -129 45 -82 123 -131 207 -131 49 1 111 21 137 44 24 22 33 20
29 -6 -3 -22 1 -23 60 -26 l62 -3 0 251 0 250 -60 0 c-57 0 -60 -1 -60 -25 0
-29 -7 -31 -31 -9 -45 40 -143 54 -212 30z m170 -126 c44 -27 65 -62 65 -112
2 -82 -46 -137 -125 -145 -109 -11 -182 106 -129 206 35 66 125 90 189 51z"/>
<path d="M3141 3958 c-74 -21 -114 -70 -113 -139 1 -78 42 -118 159 -152 71
-21 93 -35 93 -57 0 -49 -107 -52 -147 -5 l-23 26 -50 -28 c-27 -15 -50 -34
-50 -40 0 -7 17 -30 38 -51 120 -120 362 -56 362 95 0 87 -32 118 -160 159
-46 14 -84 32 -87 41 -9 22 10 47 36 51 29 5 78 -15 85 -34 4 -11 16 -9 61 13
30 15 55 30 55 34 0 4 -18 23 -39 42 -59 53 -137 69 -220 45z"/>
<path d="M4000 3961 c-112 -34 -183 -127 -184 -241 -1 -85 23 -148 78 -198 55
-50 102 -67 196 -67 84 0 133 20 183 73 l28 29 -47 28 -48 28 -37 -21 c-45
-26 -117 -29 -159 -7 -27 14 -60 51 -60 67 0 5 83 8 185 8 l185 0 0 63 c0 76
-23 128 -76 180 -58 56 -166 82 -244 58z m141 -124 c18 -12 39 -34 46 -47 l12
-25 -121 -3 c-66 -1 -123 0 -127 3 -11 12 25 60 59 77 47 24 90 22 131 -5z"/>
<path d="M4620 3959 c-14 -6 -37 -22 -52 -36 l-28 -27 0 32 0 32 -65 0 -65 0
0 -250 0 -250 65 0 65 0 0 148 c0 117 3 152 16 170 19 28 49 44 94 51 l35 6 3
68 c3 64 2 67 -20 66 -13 0 -34 -5 -48 -10z"/>
<path d="M5616 3959 c-56 -13 -120 -66 -152 -124 -22 -40 -28 -63 -28 -115 0
-82 17 -132 62 -182 58 -64 103 -82 202 -82 94 0 141 17 193 72 l28 29 -47 28
-46 27 -43 -21 c-49 -24 -102 -27 -149 -7 -31 13 -66 49 -66 68 0 5 83 8 185
8 l185 0 0 60 c0 76 -19 123 -73 178 -62 64 -149 85 -251 61z m157 -130 c20
-17 37 -39 37 -50 0 -18 -8 -19 -125 -19 l-126 0 16 30 c38 73 134 92 198 39z"/>
<path d="M6171 3953 c-25 -9 -66 -37 -92 -63 -125 -125 -92 -330 66 -413 54
-28 174 -30 225 -3 41 21 110 85 110 101 0 7 -23 24 -51 40 -48 25 -52 26 -61
10 -13 -22 -69 -45 -110 -45 -67 0 -128 62 -128 130 0 121 163 177 236 82 9
-13 19 -11 62 14 29 16 52 34 52 39 0 18 -61 75 -103 96 -55 28 -148 34 -206
12z"/>
<path d="M2800 3090 c0 -233 1 -240 20 -240 19 0 20 7 20 240 0 233 -1 240
-20 240 -19 0 -20 -7 -20 -240z"/>
<path d="M3547 3303 c-10 -10 -8 -41 3 -48 17 -11 50 5 50 25 0 23 -37 40 -53
23z"/>
<path d="M3353 3263 c-8 -2 -13 -22 -13 -44 0 -38 -1 -39 -35 -39 -28 0 -35
-4 -35 -20 0 -16 7 -20 35 -20 l35 0 0 -119 c0 -135 9 -156 70 -170 47 -10 70
-3 70 19 0 15 -9 19 -42 22 l-43 3 -3 123 -3 122 46 0 c38 0 45 3 45 20 0 17
-7 20 -45 20 l-45 0 0 45 c0 44 -6 51 -37 38z"/>
<path d="M6083 3263 c-8 -2 -13 -22 -13 -44 0 -38 -1 -39 -35 -39 -28 0 -35
-4 -35 -20 0 -16 7 -20 34 -20 l34 0 4 -126 c3 -118 4 -127 27 -145 15 -12 39
-19 67 -19 37 0 44 3 44 19 0 16 -8 20 -42 23 l-43 3 -3 123 -3 122 46 0 c38
0 45 3 45 20 0 17 -7 20 -45 20 l-45 0 0 45 c0 44 -6 51 -37 38z"/>
<path d="M2148 3175 c-33 -19 -48 -44 -48 -82 0 -46 23 -66 101 -93 62 -21 75
-30 84 -54 8 -24 6 -31 -14 -47 -37 -30 -111 -21 -134 17 -9 16 -33 18 -41 5
-11 -18 7 -42 45 -61 45 -24 87 -25 134 -6 38 16 55 42 55 83 0 45 -25 71 -88
89 -74 22 -102 41 -102 70 0 26 34 54 67 54 27 0 73 -20 73 -32 0 -12 28 -10
36 3 3 6 -4 22 -18 35 -31 32 -111 41 -150 19z"/>
<path d="M2474 3171 c-65 -30 -89 -72 -89 -157 0 -61 4 -75 27 -106 76 -99
240 -83 293 28 24 51 17 139 -15 183 -27 39 -90 71 -140 71 -19 0 -53 -9 -76
-19z m142 -40 c34 -21 64 -75 64 -115 0 -73 -60 -136 -130 -136 -69 0 -130 63
-130 135 0 102 111 168 196 116z"/>
<path d="M3763 3171 c-25 -12 -52 -35 -69 -60 -23 -36 -26 -48 -22 -104 5 -76
32 -121 92 -148 78 -35 170 -13 217 52 20 28 24 46 24 104 0 84 -24 127 -89
156 -52 24 -100 24 -153 0z m145 -41 c110 -67 60 -250 -68 -250 -69 0 -130 63
-130 135 0 72 61 135 130 135 19 0 50 -9 68 -20z"/>
<path d="M4190 3179 c-13 -5 -33 -17 -42 -26 -17 -15 -18 -15 -18 5 0 15 -6
22 -20 22 -19 0 -20 -7 -20 -165 0 -158 1 -165 20 -165 19 0 20 7 20 116 l0
116 34 34 c43 43 91 46 133 10 28 -24 28 -26 31 -150 3 -116 5 -126 23 -126
18 0 19 8 19 120 0 127 -8 157 -49 194 -24 22 -95 30 -131 15z"/>
<path d="M4503 3176 c-36 -17 -53 -43 -53 -83 0 -45 25 -70 86 -88 74 -21 104
-42 104 -71 0 -61 -114 -73 -156 -16 -12 16 -44 10 -44 -8 0 -20 52 -59 86
-66 82 -15 154 26 154 88 0 50 -24 76 -88 94 -74 22 -102 41 -102 70 0 50 86
72 129 33 21 -19 51 -20 51 -1 0 5 -10 18 -23 30 -30 28 -101 37 -144 18z"/>
<path d="M4993 3171 c-25 -12 -52 -35 -69 -60 -23 -36 -26 -48 -22 -104 3 -46
10 -72 27 -96 28 -39 91 -70 140 -71 65 0 155 59 136 90 -8 13 -35 13 -35 0 0
-18 -64 -50 -100 -50 -69 0 -130 63 -130 135 0 72 61 135 130 135 36 0 100
-32 100 -50 0 -13 27 -13 35 0 19 31 -71 90 -136 90 -19 0 -53 -9 -76 -19z"/>
<path d="M5355 3176 c-37 -16 -83 -68 -91 -102 -12 -47 1 -129 26 -164 45 -64
139 -86 215 -51 54 24 72 46 55 66 -12 14 -15 14 -34 -3 -51 -47 -110 -55
-164 -22 -27 17 -62 70 -62 95 0 3 66 5 146 5 l147 0 -6 46 c-5 49 -27 85 -70
118 -33 25 -121 32 -162 12z m125 -39 c23 -12 70 -71 70 -88 0 -5 -57 -9 -126
-9 l-125 0 6 23 c9 28 44 67 70 77 30 13 77 11 105 -3z"/>
<path d="M5775 3183 c-11 -3 -30 -14 -42 -26 l-23 -20 0 21 c0 15 -6 22 -20
22 -19 0 -20 -7 -20 -165 0 -156 1 -165 19 -165 18 0 20 10 23 121 l3 121 33
29 c41 37 89 39 129 5 28 -24 28 -26 31 -150 3 -116 5 -126 23 -126 18 0 19 8
19 123 0 103 -3 127 -20 154 -31 52 -88 72 -155 56z"/>
<path d="M6348 3177 c-65 -31 -98 -82 -98 -157 0 -125 100 -203 220 -171 25 7
56 23 69 36 21 20 22 26 11 40 -12 14 -15 14 -34 -3 -51 -47 -110 -55 -164
-22 -27 17 -62 70 -62 95 0 3 66 5 146 5 l147 0 -6 46 c-5 49 -27 85 -70 118
-32 23 -120 31 -159 13z m152 -63 c15 -16 31 -39 35 -51 6 -23 6 -23 -119 -23
-69 0 -126 4 -126 9 0 17 47 76 70 89 40 21 108 9 140 -24z"/>
<path d="M6750 3183 c-8 -3 -25 -15 -37 -26 l-23 -20 0 21 c0 15 -6 22 -20 22
-19 0 -20 -7 -20 -165 0 -156 1 -165 19 -165 18 0 20 10 23 124 3 137 12 159
69 171 20 5 29 13 29 26 0 19 -11 22 -40 12z"/>
<path d="M2932 3045 l3 -135 33 -32 c29 -29 39 -33 86 -33 41 0 62 6 85 23 30
22 31 22 31 2 0 -13 7 -20 20 -20 19 0 20 7 20 165 0 156 -1 165 -19 165 -18
0 -20 -10 -23 -121 l-3 -121 -33 -29 c-24 -21 -42 -29 -70 -29 -75 1 -92 34
-92 184 0 111 -1 116 -21 116 -20 0 -20 -4 -17 -135z"/>
<path d="M3550 3015 c0 -158 1 -165 20 -165 19 0 20 7 20 165 0 158 -1 165
-20 165 -19 0 -20 -7 -20 -165z"/>
</g>
</svg>
